<svg xmlns="http://www.w3.org/2000/svg" viewBox="0 0 64 64" role="img" aria-label="Zoth Studio">
  <rect width="64" height="64" rx="14" fill="#050510"/>
  <g fill="none" stroke="#e8e6f2" stroke-linecap="round" stroke-linejoin="round">
    <circle cx="32" cy="32" r="24" stroke-width="1.4"/>
    <circle cx="32" cy="32" r="20.4" stroke-width="0.9"/>
    <path stroke-width="1" d="M32 12 L47.5 40.5 H16.5 Z"/>
    <path stroke-width="1" d="M32 52 L16.5 23.5 H47.5 Z"/>
    <path stroke-width="1.1" d="M24 26 H32 L29.2 29.2 H39"/>
    <path stroke-width="0.9" d="M32 23 L34.6 27.4 H29.4 Z"/>
    <path stroke-width="0.9" d="M22 32 C24.2 29.6 29 29.6 30.6 32 C29 34.4 24.2 34.4 22 32 Z"/>
    <path stroke-width="0.9" d="M33.4 32 C35 29.6 39.8 29.6 42 32 C39.8 34.4 35 34.4 33.4 32 Z"/>
    <path stroke-width="1" d="M32 24.5 V36.2"/>
    <path stroke-width="0.9" d="M26.5 40.2 C29 39 35 39 37.5 40.2"/>
  </g>
</svg>
